<svg xmlns="http://www.w3.org/2000/svg" width="192" height="192" viewBox="0 0 192 192">
  <rect width="192" height="192" rx="24" fill="#3b82f6"/>
  <rect x="24" y="56" width="144" height="112" rx="12" fill="white" opacity="0.9"/>
  <rect x="24" y="56" width="144" height="24" rx="12" fill="#1e40af"/>
  <circle cx="48" cy="68" r="6" fill="white"/>
  <circle cx="144" cy="68" r="6" fill="white"/>
  <rect x="40" y="100" width="20" height="20" rx="4" fill="#3b82f6"/>
  <rect x="68" y="100" width="20" height="20" rx="4" fill="#f97316"/>
  <rect x="96" y="100" width="20" height="20" rx="4" fill="#8b5cf6"/>
  <rect x="124" y="100" width="20" height="20" rx="4" fill="#10b981"/>
  <rect x="40" y="128" width="20" height="20" rx="4" fill="#06b6d4"/>
  <rect x="68" y="128" width="20" height="20" rx="4" fill="#ec4899"/>
  <rect x="96" y="128" width="20" height="20" rx="4" fill="#6b7280"/>
  <rect x="124" y="128" width="20" height="20" rx="4" fill="#6b7280"/>
</svg>
